<mxfile host="Electron" agent="Mozilla/5.0 (Windows NT 10.0; Win64; x64) AppleWebKit/537.36 (KHTML, like Gecko) draw.io/25.0.1 Chrome/128.0.6613.186 Electron/32.2.6 Safari/537.36" version="25.0.1">
  <diagram name="Page-1" id="5OYypSuU5VY-bVDf_hHd">
    <mxGraphModel dx="1000" dy="656" grid="0" gridSize="10" guides="1" tooltips="1" connect="1" arrows="1" fold="1" page="1" pageScale="1" pageWidth="827" pageHeight="1169" math="0" shadow="0">
      <root>
        <mxCell id="0" />
        <mxCell id="1" parent="0" />
        <mxCell id="UCqLMDv5lUyc53LIavz3-15" value="" style="ellipse;whiteSpace=wrap;html=1;sketch=1;curveFitting=1;jiggle=2;fillColor=#CCCCFF;strokeColor=#2B3439;gradientColor=#9999FF;gradientDirection=radial;" vertex="1" parent="1">
          <mxGeometry x="150" y="240" width="580" height="310" as="geometry" />
        </mxCell>
        <mxCell id="UCqLMDv5lUyc53LIavz3-11" value="" style="ellipse;whiteSpace=wrap;html=1;sketch=1;curveFitting=1;jiggle=2;fillColor=#CCCCFF;strokeColor=#2B3439;gradientColor=#9999FF;gradientDirection=radial;" vertex="1" parent="1">
          <mxGeometry x="280" y="270" width="440" height="250" as="geometry" />
        </mxCell>
        <mxCell id="UCqLMDv5lUyc53LIavz3-8" value="" style="ellipse;whiteSpace=wrap;html=1;sketch=1;curveFitting=1;jiggle=2;fillColor=#CCCCFF;strokeColor=#2B3439;gradientColor=#9999FF;gradientDirection=radial;" vertex="1" parent="1">
          <mxGeometry x="400" y="300" width="300" height="200" as="geometry" />
        </mxCell>
        <mxCell id="UCqLMDv5lUyc53LIavz3-4" value="" style="ellipse;whiteSpace=wrap;html=1;sketch=1;curveFitting=1;jiggle=2;fillColor=#CCCCFF;strokeColor=#2B3439;gradientColor=#9999FF;gradientDirection=radial;" vertex="1" parent="1">
          <mxGeometry x="490" y="330" width="200" height="140" as="geometry" />
        </mxCell>
        <mxCell id="UCqLMDv5lUyc53LIavz3-1" value="" style="ellipse;whiteSpace=wrap;html=1;sketch=1;curveFitting=1;jiggle=2;fillColor=#CCCCFF;strokeColor=#000000;gradientColor=#9999FF;gradientDirection=radial;" vertex="1" parent="1">
          <mxGeometry x="590" y="360" width="90" height="80" as="geometry" />
        </mxCell>
        <mxCell id="UCqLMDv5lUyc53LIavz3-27" value="$0.89" style="edgeStyle=orthogonalEdgeStyle;rounded=0;orthogonalLoop=1;jettySize=auto;html=1;exitX=0.5;exitY=1;exitDx=0;exitDy=0;entryX=0.5;entryY=1;entryDx=0;entryDy=0;curved=1;labelBackgroundColor=none;verticalAlign=bottom;" edge="1" parent="1" source="UCqLMDv5lUyc53LIavz3-2" target="UCqLMDv5lUyc53LIavz3-6">
          <mxGeometry relative="1" as="geometry" />
        </mxCell>
        <mxCell id="UCqLMDv5lUyc53LIavz3-2" value="cost()" style="rounded=0;whiteSpace=wrap;html=1;fillColor=none;strokeColor=none;fontFamily=Comic Sans MS;" vertex="1" parent="1">
          <mxGeometry x="616" y="414" width="40" height="16" as="geometry" />
        </mxCell>
        <mxCell id="UCqLMDv5lUyc53LIavz3-3" value="HousBlend" style="rounded=0;whiteSpace=wrap;html=1;fillColor=none;strokeColor=none;fontFamily=Comic Sans MS;" vertex="1" parent="1">
          <mxGeometry x="615" y="370" width="40" height="30" as="geometry" />
        </mxCell>
        <mxCell id="UCqLMDv5lUyc53LIavz3-5" value="Soy" style="rounded=0;whiteSpace=wrap;html=1;fillColor=none;strokeColor=none;fontFamily=Comic Sans MS;" vertex="1" parent="1">
          <mxGeometry x="530" y="360" width="40" height="30" as="geometry" />
        </mxCell>
        <mxCell id="UCqLMDv5lUyc53LIavz3-22" style="edgeStyle=orthogonalEdgeStyle;rounded=0;orthogonalLoop=1;jettySize=auto;html=1;exitX=0.75;exitY=0;exitDx=0;exitDy=0;entryX=0.5;entryY=0;entryDx=0;entryDy=0;curved=1;" edge="1" parent="1" source="UCqLMDv5lUyc53LIavz3-6" target="UCqLMDv5lUyc53LIavz3-2">
          <mxGeometry relative="1" as="geometry" />
        </mxCell>
        <mxCell id="UCqLMDv5lUyc53LIavz3-24" value="$1.04" style="edgeStyle=orthogonalEdgeStyle;rounded=0;orthogonalLoop=1;jettySize=auto;html=1;exitX=0.25;exitY=1;exitDx=0;exitDy=0;entryX=0.5;entryY=1;entryDx=0;entryDy=0;curved=1;labelBackgroundColor=none;verticalAlign=bottom;" edge="1" parent="1" source="UCqLMDv5lUyc53LIavz3-6" target="UCqLMDv5lUyc53LIavz3-10">
          <mxGeometry relative="1" as="geometry" />
        </mxCell>
        <mxCell id="UCqLMDv5lUyc53LIavz3-6" value="cost()" style="rounded=0;whiteSpace=wrap;html=1;fillColor=none;strokeColor=none;fontFamily=Comic Sans MS;" vertex="1" parent="1">
          <mxGeometry x="530" y="420" width="40" height="20" as="geometry" />
        </mxCell>
        <mxCell id="UCqLMDv5lUyc53LIavz3-9" value="Mocha" style="rounded=0;whiteSpace=wrap;html=1;fillColor=none;strokeColor=none;fontFamily=Comic Sans MS;" vertex="1" parent="1">
          <mxGeometry x="430" y="360" width="40" height="30" as="geometry" />
        </mxCell>
        <mxCell id="UCqLMDv5lUyc53LIavz3-21" style="edgeStyle=orthogonalEdgeStyle;rounded=0;orthogonalLoop=1;jettySize=auto;html=1;exitX=0.75;exitY=0;exitDx=0;exitDy=0;entryX=0.5;entryY=0;entryDx=0;entryDy=0;curved=1;" edge="1" parent="1" source="UCqLMDv5lUyc53LIavz3-10" target="UCqLMDv5lUyc53LIavz3-6">
          <mxGeometry relative="1" as="geometry" />
        </mxCell>
        <mxCell id="UCqLMDv5lUyc53LIavz3-25" value="$1.24" style="edgeStyle=orthogonalEdgeStyle;rounded=0;orthogonalLoop=1;jettySize=auto;html=1;exitX=0.25;exitY=1;exitDx=0;exitDy=0;entryX=0.5;entryY=1;entryDx=0;entryDy=0;curved=1;fontFamily=Comic Sans MS;labelBackgroundColor=none;verticalAlign=bottom;" edge="1" parent="1" source="UCqLMDv5lUyc53LIavz3-10" target="UCqLMDv5lUyc53LIavz3-14">
          <mxGeometry relative="1" as="geometry" />
        </mxCell>
        <mxCell id="UCqLMDv5lUyc53LIavz3-10" value="cost()" style="rounded=0;whiteSpace=wrap;html=1;fillColor=none;strokeColor=none;fontFamily=Comic Sans MS;" vertex="1" parent="1">
          <mxGeometry x="430" y="420" width="40" height="20" as="geometry" />
        </mxCell>
        <mxCell id="UCqLMDv5lUyc53LIavz3-13" value="Mocha" style="rounded=0;whiteSpace=wrap;html=1;fillColor=none;strokeColor=none;fontFamily=Comic Sans MS;" vertex="1" parent="1">
          <mxGeometry x="334" y="360" width="40" height="30" as="geometry" />
        </mxCell>
        <mxCell id="UCqLMDv5lUyc53LIavz3-20" style="edgeStyle=orthogonalEdgeStyle;rounded=0;orthogonalLoop=1;jettySize=auto;html=1;exitX=0.75;exitY=0;exitDx=0;exitDy=0;entryX=0.5;entryY=0;entryDx=0;entryDy=0;curved=1;" edge="1" parent="1" source="UCqLMDv5lUyc53LIavz3-14" target="UCqLMDv5lUyc53LIavz3-10">
          <mxGeometry relative="1" as="geometry" />
        </mxCell>
        <mxCell id="UCqLMDv5lUyc53LIavz3-26" value="$1.44" style="edgeStyle=orthogonalEdgeStyle;rounded=0;orthogonalLoop=1;jettySize=auto;html=1;exitX=0.25;exitY=1;exitDx=0;exitDy=0;entryX=0.5;entryY=1;entryDx=0;entryDy=0;curved=1;fontFamily=Comic Sans MS;verticalAlign=bottom;labelBackgroundColor=none;" edge="1" parent="1" source="UCqLMDv5lUyc53LIavz3-14" target="UCqLMDv5lUyc53LIavz3-17">
          <mxGeometry relative="1" as="geometry" />
        </mxCell>
        <mxCell id="UCqLMDv5lUyc53LIavz3-14" value="cost()" style="rounded=0;whiteSpace=wrap;html=1;fillColor=none;strokeColor=none;fontFamily=Comic Sans MS;" vertex="1" parent="1">
          <mxGeometry x="334" y="420" width="40" height="20" as="geometry" />
        </mxCell>
        <mxCell id="UCqLMDv5lUyc53LIavz3-16" value="Whip" style="rounded=0;whiteSpace=wrap;html=1;fillColor=none;strokeColor=none;fontFamily=Comic Sans MS;" vertex="1" parent="1">
          <mxGeometry x="210" y="355" width="40" height="30" as="geometry" />
        </mxCell>
        <mxCell id="UCqLMDv5lUyc53LIavz3-19" style="edgeStyle=orthogonalEdgeStyle;rounded=0;orthogonalLoop=1;jettySize=auto;html=1;exitX=0.5;exitY=0;exitDx=0;exitDy=0;entryX=0.5;entryY=0;entryDx=0;entryDy=0;curved=1;" edge="1" parent="1" source="UCqLMDv5lUyc53LIavz3-17" target="UCqLMDv5lUyc53LIavz3-14">
          <mxGeometry relative="1" as="geometry" />
        </mxCell>
        <mxCell id="UCqLMDv5lUyc53LIavz3-31" value="$1.54" style="edgeStyle=orthogonalEdgeStyle;rounded=0;orthogonalLoop=1;jettySize=auto;html=1;exitX=0.25;exitY=1;exitDx=0;exitDy=0;entryX=1;entryY=0.5;entryDx=0;entryDy=0;curved=1;fontFamily=Comic Sans MS;labelBackgroundColor=none;verticalAlign=bottom;" edge="1" parent="1" source="UCqLMDv5lUyc53LIavz3-17" target="UCqLMDv5lUyc53LIavz3-28">
          <mxGeometry x="-0.5397" y="-24" relative="1" as="geometry">
            <mxPoint as="offset" />
          </mxGeometry>
        </mxCell>
        <mxCell id="UCqLMDv5lUyc53LIavz3-17" value="cost()" style="rounded=0;whiteSpace=wrap;html=1;fillColor=none;strokeColor=none;fontFamily=Comic Sans MS;" vertex="1" parent="1">
          <mxGeometry x="210" y="410" width="40" height="25" as="geometry" />
        </mxCell>
        <mxCell id="UCqLMDv5lUyc53LIavz3-28" value="&lt;b&gt;&lt;font style=&quot;font-size: 16px;&quot;&gt;10.&lt;/font&gt;&lt;/b&gt; Whip adds it cost,&lt;div&gt;0.10 cents.&lt;/div&gt;&lt;div&gt;We now have the total cost $1.54.&lt;/div&gt;" style="rounded=0;whiteSpace=wrap;html=1;strokeColor=none;fillColor=none;fontFamily=Comic Sans MS;" vertex="1" parent="1">
          <mxGeometry x="89" y="475" width="80" height="50" as="geometry" />
        </mxCell>
        <mxCell id="UCqLMDv5lUyc53LIavz3-30" style="edgeStyle=orthogonalEdgeStyle;rounded=0;orthogonalLoop=1;jettySize=auto;html=1;exitX=0.5;exitY=1;exitDx=0;exitDy=0;entryX=0;entryY=0.25;entryDx=0;entryDy=0;curved=1;" edge="1" parent="1" source="UCqLMDv5lUyc53LIavz3-32" target="UCqLMDv5lUyc53LIavz3-17">
          <mxGeometry relative="1" as="geometry">
            <mxPoint x="100" y="370" as="sourcePoint" />
          </mxGeometry>
        </mxCell>
        <mxCell id="UCqLMDv5lUyc53LIavz3-32" value="&lt;b&gt;&lt;font style=&quot;font-size: 16px;&quot;&gt;1.&lt;/font&gt;&lt;/b&gt;First, we call cost()&lt;div&gt;&amp;nbsp;on the outermost&lt;/div&gt;&lt;div&gt;decorator, Whip.&lt;/div&gt;" style="text;html=1;align=center;verticalAlign=middle;whiteSpace=wrap;rounded=0;fontFamily=Comic Sans MS;" vertex="1" parent="1">
          <mxGeometry x="47" y="262" width="180" height="50" as="geometry" />
        </mxCell>
        <mxCell id="UCqLMDv5lUyc53LIavz3-33" value="&lt;b&gt;&lt;font style=&quot;font-size: 16px;&quot;&gt;2.&lt;/font&gt;&lt;/b&gt;&amp;nbsp;Whip calls cost()&lt;div&gt;&amp;nbsp;on Mocha.&lt;/div&gt;" style="text;html=1;align=center;verticalAlign=middle;whiteSpace=wrap;rounded=0;fontFamily=Comic Sans MS;" vertex="1" parent="1">
          <mxGeometry x="140" y="206" width="154" height="50" as="geometry" />
        </mxCell>
        <mxCell id="UCqLMDv5lUyc53LIavz3-34" value="&lt;b&gt;&lt;font style=&quot;font-size: 16px;&quot;&gt;3.&lt;/font&gt;&lt;/b&gt;&amp;nbsp;Mocha calls cost()&lt;div&gt;&amp;nbsp;on Mocha,&amp;nbsp;&lt;span style=&quot;background-color: initial;&quot;&gt;because&lt;/span&gt;&lt;/div&gt;&lt;div&gt;&lt;span style=&quot;background-color: initial;&quot;&gt;we are making an&amp;nbsp;&lt;/span&gt;&lt;div&gt;double Mocha.&lt;/div&gt;&lt;/div&gt;" style="text;html=1;align=center;verticalAlign=middle;whiteSpace=wrap;rounded=0;fontFamily=Comic Sans MS;" vertex="1" parent="1">
          <mxGeometry x="280" y="165" width="150" height="50" as="geometry" />
        </mxCell>
        <mxCell id="UCqLMDv5lUyc53LIavz3-35" value="&lt;b&gt;&lt;font style=&quot;font-size: 16px;&quot;&gt;4.&lt;/font&gt;&lt;/b&gt;&amp;nbsp;Mocha calls cost()&lt;div&gt;on Soy,&lt;/div&gt;" style="text;html=1;align=center;verticalAlign=middle;whiteSpace=wrap;rounded=0;fontFamily=Comic Sans MS;" vertex="1" parent="1">
          <mxGeometry x="446" y="173" width="132" height="50" as="geometry" />
        </mxCell>
        <mxCell id="UCqLMDv5lUyc53LIavz3-36" value="&lt;b&gt;&lt;font style=&quot;font-size: 16px;&quot;&gt;5.&lt;/font&gt;&lt;/b&gt;&amp;nbsp;Soy calls cost()&lt;div&gt;on HouseBlend,&lt;/div&gt;" style="text;html=1;align=center;verticalAlign=middle;whiteSpace=wrap;rounded=0;fontFamily=Comic Sans MS;" vertex="1" parent="1">
          <mxGeometry x="583" y="208" width="132" height="50" as="geometry" />
        </mxCell>
        <mxCell id="UCqLMDv5lUyc53LIavz3-37" value="&lt;b&gt;&lt;font style=&quot;font-size: 16px;&quot;&gt;6.&lt;/font&gt;&lt;/b&gt;&amp;nbsp;HouseBlend returns its cost,&lt;div&gt;89 cents.&lt;/div&gt;" style="text;html=1;align=center;verticalAlign=middle;whiteSpace=wrap;rounded=0;fontFamily=Comic Sans MS;" vertex="1" parent="1">
          <mxGeometry x="618" y="507" width="132" height="50" as="geometry" />
        </mxCell>
        <mxCell id="UCqLMDv5lUyc53LIavz3-38" value="&lt;b&gt;&lt;font style=&quot;font-size: 16px;&quot;&gt;7.&lt;/font&gt;&lt;/b&gt;&amp;nbsp;Say adds&lt;div&gt;its cost,&lt;/div&gt;&lt;div&gt;0.15 cents.&lt;/div&gt;" style="text;html=1;align=center;verticalAlign=middle;whiteSpace=wrap;rounded=0;fontFamily=Comic Sans MS;" vertex="1" parent="1">
          <mxGeometry x="490" y="548" width="132" height="50" as="geometry" />
        </mxCell>
        <mxCell id="UCqLMDv5lUyc53LIavz3-39" value="&lt;b&gt;&lt;font style=&quot;font-size: 16px;&quot;&gt;8.&lt;/font&gt;&lt;/b&gt;&amp;nbsp;Second Mocha adds its cost,&lt;div&gt;&amp;nbsp;0.20 cents.&lt;/div&gt;" style="text;html=1;align=center;verticalAlign=middle;whiteSpace=wrap;rounded=0;fontFamily=Comic Sans MS;" vertex="1" parent="1">
          <mxGeometry x="358" y="560" width="132" height="50" as="geometry" />
        </mxCell>
        <mxCell id="UCqLMDv5lUyc53LIavz3-40" value="&lt;b&gt;&lt;font style=&quot;font-size: 16px;&quot;&gt;9.&lt;/font&gt;&lt;/b&gt;&amp;nbsp;First Mocha adds its cost,&lt;div&gt;&amp;nbsp;0.20 cents.&lt;/div&gt;" style="text;html=1;align=center;verticalAlign=middle;whiteSpace=wrap;rounded=0;fontFamily=Comic Sans MS;" vertex="1" parent="1">
          <mxGeometry x="210" y="545" width="132" height="50" as="geometry" />
        </mxCell>
      </root>
    </mxGraphModel>
  </diagram>
</mxfile>
